<svg width="13" height="13" viewBox="0 0 13 13" fill="none" xmlns="http://www.w3.org/2000/svg">
<path d="M12.8255 0.484954C12.8092 0.408973 12.7713 0.339321 12.7163 0.28437C12.6613 0.229419 12.5917 0.191508 12.5157 0.175193C11.6979 0 11.0581 0 10.4206 0C7.79961 0 6.22751 1.40154 5.0544 3.24995H2.40799C2.18198 3.25015 1.96047 3.31314 1.7682 3.43192C1.57594 3.55069 1.42048 3.72055 1.3192 3.92254L0.0640576 6.4311C0.0177053 6.52403 -0.00412377 6.62726 0.000642019 6.73099C0.00540781 6.83472 0.0366104 6.93551 0.0912884 7.0238C0.145966 7.11209 0.222306 7.18495 0.313062 7.23546C0.403817 7.28597 0.505978 7.31245 0.609849 7.3124H3.24534L2.67466 7.88292C2.52228 8.03528 2.43668 8.24192 2.43668 8.45737C2.43668 8.67283 2.52228 8.87946 2.67466 9.03183L3.96739 10.3244C4.04286 10.3999 4.13246 10.4598 4.23108 10.5006C4.32969 10.5415 4.43539 10.5625 4.54214 10.5625C4.64888 10.5625 4.75458 10.5415 4.85319 10.5006C4.95181 10.4598 5.04141 10.3999 5.11688 10.3244L5.68756 9.75393V12.3905C5.68753 12.4943 5.71402 12.5964 5.76453 12.687C5.81504 12.7777 5.88789 12.854 5.97617 12.9087C6.06445 12.9634 6.16523 12.9946 6.26895 12.9993C6.37268 13.0041 6.47591 12.9824 6.56885 12.9361L9.07558 11.6821C9.27796 11.581 9.44814 11.4255 9.56703 11.2331C9.68592 11.0407 9.7488 10.819 9.74861 10.5928V7.94182C11.5922 6.76625 12.9995 5.18952 12.9995 2.58219C13.002 1.94236 13.002 1.30252 12.8255 0.484954ZM9.75115 4.26556C9.55023 4.26556 9.35381 4.206 9.18675 4.0944C9.01969 3.98281 8.88948 3.82419 8.81258 3.63861C8.73569 3.45303 8.71558 3.24883 8.75477 3.05182C8.79397 2.85481 8.89073 2.67384 9.0328 2.53181C9.17488 2.38977 9.3559 2.29305 9.55296 2.25386C9.75003 2.21467 9.95429 2.23478 10.1399 2.31165C10.3256 2.38852 10.4842 2.51869 10.5958 2.68571C10.7075 2.85273 10.767 3.04909 10.767 3.24995C10.767 3.51931 10.66 3.77764 10.4695 3.9681C10.279 4.15856 10.0206 4.26556 9.75115 4.26556Z" fill="#4F0FC5"/>
</svg>
