<svg width="12" height="15" viewBox="0 0 12 15" fill="none" xmlns="http://www.w3.org/2000/svg">
<path d="M11.5714 0.937505H8.35714L8.10536 0.389653C8.05202 0.272529 7.96986 0.174006 7.86812 0.105169C7.76638 0.0363316 7.6491 -8.87099e-05 7.52946 5.13654e-06H4.46786C4.34849 -0.000496734 4.23142 0.0357877 4.13004 0.104701C4.02866 0.173615 3.94708 0.272371 3.89464 0.389653L3.64286 0.937505H0.428571C0.314907 0.937505 0.205898 0.986891 0.125526 1.0748C0.0451529 1.16271 0 1.28193 0 1.40625L0 2.34375C0 2.46807 0.0451529 2.5873 0.125526 2.67521C0.205898 2.76312 0.314907 2.8125 0.428571 2.8125H11.5714C11.6851 2.8125 11.7941 2.76312 11.8745 2.67521C11.9548 2.5873 12 2.46807 12 2.34375V1.40625C12 1.28193 11.9548 1.16271 11.8745 1.0748C11.7941 0.986891 11.6851 0.937505 11.5714 0.937505ZM1.425 13.6816C1.44544 14.0387 1.58951 14.3737 1.82787 14.6187C2.06624 14.8636 2.38098 15 2.70804 15H9.29196C9.61902 15 9.93376 14.8636 10.1721 14.6187C10.4105 14.3737 10.5546 14.0387 10.575 13.6816L11.1429 3.75H0.857143L1.425 13.6816Z" fill="#FF0000"/>
</svg>
